<?xml version="1.0" encoding="UTF-8"?>
<!DOCTYPE svg PUBLIC "-//W3C//DTD SVG 1.1//EN" "http://www.w3.org/Graphics/SVG/1.1/DTD/svg11.dtd">
<svg version="1.1" xmlns="http://www.w3.org/2000/svg" xmlns:xlink="http://www.w3.org/1999/xlink" x="0" y="0" width="768" height="1024" viewBox="0, 0, 768, 1024">
  <g id="Layer_1">
    <path d="M103,302 L170,302 L170,386 L103,386 L103,302 z" fill="#1CA3FE"/>
    <path d="M127,278 L149,278 L149,311 L127,311 L127,278 z" fill="#1CA3FE"/>
    <path d="M119.5,262 L154.5,262 L154.5,278 L119.5,278 L119.5,262 z" fill="#1CA3FE"/>
    <path d="M127,386 L149,386 L149,415 L127,415 L127,386 z" fill="#1CA3FE"/>
    <path d="M93,427 L182,427 L182,466 L93,466 L93,427 z" fill="#1CA3FE"/>
    <path d="M108,487.5 L264,487.5 L264,526.5 L108,526.5 L108,487.5 z" fill="#1CA3FE"/>
    <path d="M293,487.5 L331,487.5 L331,526.5 L293,526.5 L293,487.5 z" fill="#1CA3FE"/>
    <path d="M164,324.5 L211,324.5 L211,363.5 L164,363.5 L164,324.5 z" fill="#1CA3FE"/>
    <text transform="matrix(1, 0, 0, 1, 516.625, 365)">
      <tspan x="-178.625" y="103.5" font-family="Arial-BoldMT" font-size="300" fill="#1CA3FE">py</tspan>
    </text>
    <path d="M206.596,345.169 C232.669,345.396 253.096,426.805 252.222,527" fill-opacity="0" stroke="#1CA3FE" stroke-width="40"/>
    <path d="M119.5,459 L158.5,459 L158.5,498 L119.5,498 L119.5,459 z" fill="#1CA3FE"/>
  </g>
</svg>
